<?xml version="1.0" encoding="UTF-8" standalone="no"?>
<!-- Created with Inkscape (http://www.inkscape.org/) -->

<svg
   xmlns:dc="http://purl.org/dc/elements/1.1/"
   xmlns:cc="http://creativecommons.org/ns#"
   xmlns:rdf="http://www.w3.org/1999/02/22-rdf-syntax-ns#"
   xmlns:svg="http://www.w3.org/2000/svg"
   xmlns="http://www.w3.org/2000/svg"
   xmlns:sodipodi="http://sodipodi.sourceforge.net/DTD/sodipodi-0.dtd"
   xmlns:inkscape="http://www.inkscape.org/namespaces/inkscape"
   width="55.711998mm"
   height="55.712002mm"
   viewBox="0 0 55.711998 55.712002"
   version="1.1"
   id="svg8"
   inkscape:version="0.92.2 (5c3e80d, 2017-08-06)"
   sodipodi:docname="GitHub.svg">
  <defs
     id="defs2">
    <clipPath
       id="clipPath28"
       clipPathUnits="userSpaceOnUse">
      <path
         inkscape:connector-curvature="0"
         id="path26"
         d="M 0,551.986 H 530.973 V 0 H 0 Z" />
    </clipPath>
  </defs>
  <sodipodi:namedview
     id="base"
     pagecolor="#ffffff"
     bordercolor="#666666"
     borderopacity="1.0"
     inkscape:pageopacity="0.0"
     inkscape:pageshadow="2"
     inkscape:zoom="1"
     inkscape:cx="115.09559"
     inkscape:cy="123.78118"
     inkscape:document-units="mm"
     inkscape:current-layer="layer1"
     showgrid="false"
     fit-margin-top="1"
     fit-margin-left="1"
     fit-margin-bottom="1"
     fit-margin-right="1"
     inkscape:window-width="958"
     inkscape:window-height="1008"
     inkscape:window-x="953"
     inkscape:window-y="0"
     inkscape:window-maximized="0" />
  <metadata
     id="metadata5">
    <rdf:RDF>
      <cc:Work
         rdf:about="">
        <dc:format>image/svg+xml</dc:format>
        <dc:type
           rdf:resource="http://purl.org/dc/dcmitype/StillImage" />
        <dc:title></dc:title>
      </cc:Work>
    </rdf:RDF>
  </metadata>
  <g
     inkscape:label="Layer 1"
     inkscape:groupmode="layer"
     id="layer1"
     transform="translate(-7.0158163,-173.02406)">
    <path
       style="fill:#000000;stroke-width:0.73877817"
       d="m 22.764674,226.14636 c -8.664728,-4.4212 -14.7488577,-14.54642 -14.7488577,-24.5451 0,-14.8799 12.3652417,-27.5772 26.8559987,-27.5772 14.49076,0 26.856001,12.6973 26.856001,27.5772 0,10.0475 -6.108357,20.17337 -14.824415,24.57456 -5.041364,2.54565 -5.044492,2.54309 -5.317114,-4.34444 -0.13036,-3.29332 -0.464723,-6.17225 -0.783758,-6.74821 -0.767355,-1.38535 -0.778117,-1.3709 1.272045,-1.70754 2.626164,-0.43122 5.994739,-2.31722 7.316108,-4.09615 3.090276,-4.16036 3.426137,-11.03652 0.753702,-15.4308 -0.404042,-0.66437 -0.614179,-1.95901 -0.542638,-3.34315 0.06422,-1.24239 -0.01515,-2.87571 -0.176421,-3.62959 -0.389608,-1.82149 -1.906452,-1.82468 -5.407378,-0.0114 -2.299235,1.1909 -2.848138,1.30627 -4.429743,0.93101 -2.31776,-0.54991 -7.115017,-0.54991 -9.432778,0 -1.581604,0.37526 -2.130505,0.25989 -4.429739,-0.93101 -3.500927,-1.81333 -5.017773,-1.81015 -5.407378,0.0114 -0.161249,0.75388 -0.24064,2.3872 -0.176424,3.62959 0.07154,1.38414 -0.138594,2.67878 -0.542634,3.34315 -1.35657,2.2306 -1.746085,3.74141 -1.746085,6.77253 0,4.14046 1.052584,7.14448 3.316929,9.46635 1.767943,1.81286 5.365323,3.47074 7.531037,3.47074 0.672157,0 0.813861,0.19849 0.574551,0.80481 -0.174708,0.44264 -0.511253,1.35317 -0.747875,2.02341 -0.719456,2.03788 -3.841205,2.38824 -6.260177,0.7026 -0.842985,-0.58743 -1.778024,-0.98408 -2.077864,-0.88145 -0.29984,0.10263 -0.545164,-0.0498 -0.545164,-0.33875 0,-0.28895 0.201536,-0.39745 0.447859,-0.24113 0.246322,0.15633 0.447859,0.0904 0.447859,-0.14649 0,-0.61649 -1.218806,-1.57216 -1.450552,-1.13739 -0.106745,0.20026 -0.138323,0.12056 -0.07017,-0.17712 0.161354,-0.70481 -0.654006,-1.37867 -2.127759,-1.75849 -1.837913,-0.47367 -2.077427,0.61416 -0.427212,1.94033 0.77993,0.62678 1.916302,2.14925 2.525272,3.38327 1.401595,2.84018 3.128493,3.83581 6.607688,3.80956 l 2.594039,-0.0196 -0.130813,3.03147 c -0.164493,3.81198 -0.65699,3.96012 -5.296136,1.59299 z m 2.254239,-7.06942 c 0,-0.25294 0.201537,-0.45989 0.44786,-0.45989 0.246322,0 0.447859,0.20695 0.447859,0.45989 0,0.25294 -0.201537,0.45989 -0.447859,0.45989 -0.246323,0 -0.44786,-0.20695 -0.44786,-0.45989 z m -2.239296,-0.48703 c 0,-0.26786 0.201537,-0.35912 0.44786,-0.2028 0.246322,0.15633 0.447859,0.37549 0.447859,0.48703 0,0.11154 -0.201537,0.2028 -0.447859,0.2028 -0.246323,0 -0.44786,-0.21916 -0.44786,-0.48703 z m 4.394618,0.17288 c 0.323299,-0.13285 0.709578,-0.11652 0.858398,0.0363 0.148819,0.15282 -0.115698,0.26151 -0.587815,0.24154 -0.521731,-0.0221 -0.627854,-0.13104 -0.270583,-0.27784 z m -6.186054,-1.06551 c 0,-0.25294 0.201536,-0.45988 0.447859,-0.45988 0.246322,0 0.447859,0.20694 0.447859,0.45988 0,0.25294 -0.201537,0.45989 -0.447859,0.45989 -0.246323,0 -0.447859,-0.20695 -0.447859,-0.45989 z"
       id="path569"
       inkscape:connector-curvature="0"
       sodipodi:nodetypes="csssssssssccccsscsssssssscscscccssccsccsssssscssscccccsssss" />
  </g>
</svg>
