<?xml version="1.0" encoding="UTF-8" standalone="no"?>
<svg
   xmlns:dc="http://purl.org/dc/elements/1.1/"
   xmlns:cc="http://creativecommons.org/ns#"
   xmlns:rdf="http://www.w3.org/1999/02/22-rdf-syntax-ns#"
   xmlns:svg="http://www.w3.org/2000/svg"
   xmlns="http://www.w3.org/2000/svg"
   xmlns:sodipodi="http://sodipodi.sourceforge.net/DTD/sodipodi-0.dtd"
   xmlns:inkscape="http://www.inkscape.org/namespaces/inkscape"
   width="202.08698"
   height="202.08702"
   viewBox="-0.25 -0.25 89.686198 89.700369"
   version="1.1"
   id="svg6"
   sodipodi:docname="twitter.svg"
   inkscape:version="0.92.2 (5c3e80d, 2017-08-06)"
   inkscape:export-filename="C:\Users\Mushfiq\OneDrive\Documents\Projects\Website\images\other_logos\twitter.png"
   inkscape:export-xdpi="96"
   inkscape:export-ydpi="96">
  <metadata
     id="metadata12">
    <rdf:RDF>
      <cc:Work
         rdf:about="">
        <dc:format>image/svg+xml</dc:format>
        <dc:type
           rdf:resource="http://purl.org/dc/dcmitype/StillImage" />
        <dc:title></dc:title>
      </cc:Work>
    </rdf:RDF>
  </metadata>
  <defs
     id="defs10" />
  <sodipodi:namedview
     pagecolor="#ffffff"
     bordercolor="#666666"
     borderopacity="1"
     objecttolerance="10"
     gridtolerance="10"
     guidetolerance="10"
     inkscape:pageopacity="0"
     inkscape:pageshadow="2"
     inkscape:window-width="1920"
     inkscape:window-height="1017"
     id="namedview8"
     showgrid="false"
     inkscape:zoom="0.11619892"
     inkscape:cx="-398.278"
     inkscape:cy="-1213.7511"
     inkscape:window-x="-8"
     inkscape:window-y="-8"
     inkscape:window-maximized="1"
     inkscape:current-layer="svg6"
     fit-margin-left="1"
     fit-margin-top="1"
     fit-margin-bottom="1"
     fit-margin-right="1" />
  <path
     style="fill:#5da8dc;fill-opacity:1;stroke:none;stroke-width:2.55294776;stroke-linecap:butt;stroke-linejoin:miter;stroke-miterlimit:4;stroke-dasharray:none;stroke-opacity:1"
     d="M 44.512478,0.19387001 A 44.406364,44.406364 0 0 0 0.10628767,44.60006 44.406364,44.406364 0 0 0 44.512478,89.0065 44.406364,44.406364 0 0 0 88.918898,44.60006 44.406364,44.406364 0 0 0 44.512478,0.19387001 Z m 8.4727,23.94598999 h 2.36221 l 0.86302,0.1728 c 0.57544,0.11207 1.09787,0.25878 1.56726,0.44049 0.46946,0.18171 0.9239,0.39387 1.363,0.63614 0.43915,0.24227 0.83749,0.48902 1.19486,0.74037 0.35434,0.24835 0.67233,0.51191 0.95398,0.79052 0.27856,0.28165 0.71296,0.35431 1.30351,0.21803 0.59056,-0.13629 1.22679,-0.32555 1.90821,-0.56782 0.6814,-0.24227 1.35526,-0.51492 2.02151,-0.81779 0.66628,-0.30287 1.0721,-0.49514 1.21748,-0.57691 0.14232,-0.0848 0.21804,-0.13009 0.22712,-0.13618 l 0.009,-0.0138 0.0452,-0.0226 0.0455,-0.0229 0.0455,-0.0226 0.0455,-0.0229 0.009,-0.0135 0.0135,-0.009 0.0138,-0.009 0.009,-0.0138 0.0452,-0.0135 0.0455,-0.009 -0.009,0.0681 -0.0135,0.0681 -0.0228,0.0683 -0.0226,0.0681 -0.0229,0.0455 -0.0226,0.0452 -0.0229,0.0683 c -0.0151,0.0454 -0.03,0.10591 -0.0452,0.18165 -0.0151,0.0757 -0.15907,0.37849 -0.43163,0.9085 -0.27258,0.53 -0.61322,1.06761 -1.02207,1.61273 -0.40886,0.54514 -0.77545,0.95702 -1.09949,1.23567 -0.32708,0.28165 -0.54363,0.47836 -0.64968,0.59043 -0.10598,0.11507 -0.23445,0.22113 -0.38591,0.31807 l -0.22737,0.14995 -0.0452,0.0226 -0.0455,0.0229 -0.009,0.0135 -0.0137,0.009 -0.0135,0.009 -0.009,0.0138 -0.0455,0.0226 -0.0455,0.0229 -0.009,0.0135 -0.0138,0.009 -0.0135,0.009 -0.009,0.0138 -0.009,0.0135 -0.0138,0.009 -0.0138,0.009 -0.009,0.0138 h 0.22737 l 1.27181,-0.2726 c 0.848,-0.18172 1.65825,-0.40133 2.43053,-0.65876 l 1.22658,-0.40878 0.13617,-0.0455 0.0681,-0.0226 0.0455,-0.0229 0.0455,-0.0226 0.0455,-0.0229 0.0452,-0.0226 0.091,-0.0138 0.091,-0.009 v 0.0909 l -0.0229,0.009 -0.0226,0.0138 -0.009,0.0135 -0.0138,0.009 -0.0135,0.009 -0.009,0.0138 -0.009,0.0135 -0.0138,0.009 -0.0135,0.009 -0.009,0.0138 -0.009,0.0135 -0.0138,0.009 -0.0226,0.0455 -0.0229,0.0455 -0.0135,0.009 c -0.006,0.009 -0.19831,0.26653 -0.57691,0.77232 -0.37855,0.5088 -0.58299,0.76599 -0.61328,0.77208 -0.0303,0.009 -0.0728,0.0546 -0.12733,0.13642 -0.0515,0.0848 -0.37251,0.4224 -0.96307,1.01297 -0.59056,0.59056 -1.1688,1.11599 -1.73515,1.57636 -0.56935,0.46337 -0.85724,1.03273 -0.86328,1.70811 -0.009,0.67233 -0.0438,1.43239 -0.10447,2.28035 -0.0606,0.848 -0.1741,1.76408 -0.34068,2.74836 -0.16654,0.98429 -0.42404,2.09736 -0.77232,3.33904 -0.34825,1.24168 -0.77235,2.45312 -1.27205,3.63424 -0.49971,1.18113 -1.02213,2.24115 -1.56727,3.18 -0.54513,0.93887 -1.04464,1.7337 -1.49892,2.38482 -0.45428,0.65112 -0.91616,1.26443 -1.38562,1.83987 -0.46941,0.57543 -1.06287,1.22358 -1.78062,1.94432 -0.7208,0.71777 -1.1147,1.11146 -1.18134,1.18111 -0.0697,0.0666 -0.36631,0.31502 -0.89031,0.74504 -0.52088,0.43306 -1.08118,0.86622 -1.68083,1.29933 -0.59661,0.43006 -1.14475,0.78893 -1.64445,1.07663 -0.49971,0.28769 -1.10247,0.61618 -1.80815,0.98568 -0.70259,0.37251 -1.46265,0.71784 -2.28034,1.03584 -0.81771,0.31799 -1.68078,0.61331 -2.58934,0.88589 -0.90856,0.27257 -1.7868,0.48448 -2.63479,0.63589 -0.84796,0.15141 -1.80966,0.28019 -2.88479,0.38617 l -1.61273,0.15903 v 0.0226 h -2.95264 v -0.0226 l -0.38615,-0.0229 c -0.25741,-0.0151 -0.46957,-0.0303 -0.63615,-0.0455 -0.16654,-0.0151 -0.79483,-0.0983 -1.88509,-0.24974 -1.09027,-0.15141 -1.94587,-0.30285 -2.56672,-0.45425 -0.62081,-0.15142 -1.54467,-0.43929 -2.77122,-0.86328 -1.22655,-0.42397 -2.27584,-0.8525 -3.14805,-1.28556 -0.86918,-0.43008 -1.41426,-0.70249 -1.63535,-0.81755 -0.21805,-0.11208 -0.46339,-0.25153 -0.73595,-0.41813 l -0.40902,-0.24973 -0.009,-0.0138 -0.0138,-0.009 -0.0135,-0.009 -0.009,-0.0135 -0.0452,-0.0229 -0.0455,-0.0226 -0.009,-0.0138 -0.0138,-0.009 -0.0135,-0.009 -0.009,-0.0135 -0.009,-0.0138 -0.0138,-0.009 h -0.0226 v -0.0907 l 0.0455,0.009 0.0455,0.0135 0.20426,0.0229 c 0.13628,0.0151 0.50734,0.0378 1.11302,0.0681 0.60573,0.0302 1.24939,0.0302 1.93081,0 0.68141,-0.0303 1.37792,-0.0985 2.0896,-0.20451 0.71172,-0.10598 1.55212,-0.28751 2.52123,-0.54496 0.96916,-0.25743 1.85953,-0.5635 2.67118,-0.91784 0.80862,-0.35734 1.38405,-0.62369 1.7263,-0.79936 0.33916,-0.17263 0.85696,-0.49367 1.55351,-0.96308 l 1.04492,-0.70423 0.009,-0.0135 0.0135,-0.009 0.0138,-0.009 0.009,-0.0138 0.009,-0.0135 0.0135,-0.009 0.0138,-0.009 0.009,-0.0137 0.0455,-0.0135 0.0452,-0.009 0.009,-0.0455 0.0138,-0.0455 0.0135,-0.009 0.009,-0.0138 -0.3633,-0.0226 c -0.24226,-0.0151 -0.47711,-0.0303 -0.70423,-0.0455 -0.22714,-0.0151 -0.58297,-0.0834 -1.06755,-0.20451 -0.48452,-0.12116 -1.00695,-0.30269 -1.56726,-0.54496 -0.56026,-0.24227 -1.10534,-0.53016 -1.63535,-0.86328 -0.52996,-0.33312 -0.91317,-0.61026 -1.14939,-0.83132 -0.23318,-0.21809 -0.53599,-0.52692 -0.9085,-0.92668 -0.36947,-0.40277 -0.6905,-0.81613 -0.96307,-1.2401 -0.27257,-0.42398 -0.53311,-0.91329 -0.78142,-1.46746 l -0.37707,-0.82665 -0.0226,-0.0681 -0.0229,-0.0683 -0.0135,-0.0452 -0.009,-0.0455 0.0681,0.009 0.0681,0.0135 0.49972,0.0683 c 0.33316,0.0454 0.8556,0.0603 1.56726,0.0452 0.71173,-0.0151 1.204,-0.0453 1.47657,-0.0907 0.27256,-0.0454 0.43917,-0.0758 0.49973,-0.091 l 0.0907,-0.0226 0.11356,-0.0229 0.11357,-0.0226 0.009,-0.0138 0.0138,-0.009 0.0135,-0.009 0.009,-0.0135 -0.0907,-0.0229 -0.091,-0.0226 -0.0909,-0.0229 -0.0907,-0.0226 -0.091,-0.0229 c -0.0606,-0.0151 -0.16661,-0.0455 -0.31806,-0.091 -0.15142,-0.0454 -0.56005,-0.21179 -1.22634,-0.49947 -0.66624,-0.2877 -1.1964,-0.56785 -1.59012,-0.84043 a 10.979891,10.979891 0 0 1 -1.12653,-0.89497 c -0.35434,-0.32708 -0.74356,-0.74814 -1.16759,-1.26296 -0.42397,-0.51484 -0.80245,-1.11297 -1.13562,-1.79439 -0.33312,-0.68141 -0.58288,-1.33256 -0.74947,-1.95342 a 10.545738,10.545738 0 0 1 -0.32716,-1.88534 l -0.0819,-0.95397 0.0455,0.009 0.0455,0.0138 0.0455,0.0226 0.0452,0.0229 0.0455,0.0226 0.0455,0.0229 0.70423,0.31808 c 0.46946,0.21201 1.05239,0.39354 1.74892,0.54495 0.6966,0.15141 1.1129,0.23486 1.24919,0.24999 l 0.20451,0.0226 h 0.40878 l -0.009,-0.0135 -0.0138,-0.009 -0.0135,-0.009 -0.009,-0.0138 -0.009,-0.0135 -0.0138,-0.009 -0.0135,-0.009 -0.009,-0.0138 -0.0455,-0.0226 -0.0455,-0.0229 -0.009,-0.0135 -0.0138,-0.009 -0.0135,-0.009 -0.009,-0.0138 -0.0455,-0.0226 -0.0455,-0.0229 -0.009,-0.0135 c -0.009,-0.006 -0.13918,-0.10304 -0.39058,-0.29079 -0.24835,-0.1908 -0.50885,-0.4375 -0.78142,-0.74037 -0.27256,-0.30287 -0.54498,-0.62109 -0.81755,-0.95422 a 7.3664759,7.3664759 0 0 1 -0.72684,-1.06754 c -0.21198,-0.37854 -0.43631,-0.86012 -0.67254,-1.4446 -0.23318,-0.58147 -0.41028,-1.16745 -0.53142,-1.75801 -0.12112,-0.59056 -0.18935,-1.17348 -0.20451,-1.74891 -0.0152,-0.57544 2e-5,-1.06747 0.0455,-1.47632 0.0454,-0.40885 0.13631,-0.87078 0.27259,-1.38561 0.13629,-0.51484 0.33329,-1.05992 0.59068,-1.63535 l 0.38616,-0.86327 0.0226,-0.0681 0.0229,-0.0681 0.0135,-0.009 0.009,-0.0138 0.009,-0.0135 0.0138,-0.009 0.0135,0.009 0.009,0.0135 0.009,0.0138 0.0135,0.009 0.0138,0.009 0.009,0.0135 0.009,0.0138 0.0135,0.009 0.0229,0.0455 0.0226,0.0455 0.0138,0.009 0.009,0.0135 0.61329,0.68137 c 0.40885,0.45428 0.89345,0.96153 1.45371,1.52179 0.56029,0.56026 0.87055,0.85115 0.93111,0.87237 0.0606,0.0242 0.13627,0.0938 0.22712,0.20893 0.0909,0.11207 0.39391,0.38006 0.90875,0.80404 0.51488,0.42398 1.18868,0.91605 2.02151,1.47631 0.83289,0.56026 1.75644,1.11308 2.77098,1.65821 1.01458,0.54514 2.10476,1.03716 3.27071,1.47632 1.16599,0.43914 1.98374,0.72698 2.45314,0.86327 0.46945,0.13628 1.27198,0.31033 2.40768,0.52234 1.13569,0.21201 1.99132,0.34822 2.56671,0.40878 0.57543,0.0605 0.96914,0.0956 1.1811,0.10471 l 0.31807,0.009 -0.009,-0.0683 -0.0138,-0.0681 -0.0907,-0.56781 c -0.0606,-0.37855 -0.091,-0.90846 -0.091,-1.58988 0,-0.68142 0.053,-1.3099 0.15904,-1.88534 0.10603,-0.57543 0.26489,-1.15836 0.47687,-1.74891 0.21201,-0.59056 0.41949,-1.06466 0.62238,-1.42199 0.20596,-0.35434 0.47558,-0.75854 0.8087,-1.21281 0.33316,-0.45428 0.76471,-0.92365 1.29467,-1.40823 0.53,-0.48457 1.13583,-0.91635 1.81724,-1.29491 0.68143,-0.37854 1.30971,-0.66619 1.8851,-0.86302 0.57542,-0.19684 1.06002,-0.3256 1.45369,-0.38616 0.39373,-0.0606 0.59068,-0.0954 0.59068,-0.10447 l 2.4e-4,2.4e-4 z"
     id="path2263"
     inkscape:connector-curvature="0"
     inkscape:export-xdpi="96"
     inkscape:export-ydpi="96" />
</svg>
