<?xml version="1.0" encoding="UTF-8" standalone="no"?>
<!-- Created with Inkscape (http://www.inkscape.org/) -->

<svg
   xmlns:dc="http://purl.org/dc/elements/1.1/"
   xmlns:cc="http://creativecommons.org/ns#"
   xmlns:rdf="http://www.w3.org/1999/02/22-rdf-syntax-ns#"
   xmlns:svg="http://www.w3.org/2000/svg"
   xmlns="http://www.w3.org/2000/svg"
   xmlns:sodipodi="http://sodipodi.sourceforge.net/DTD/sodipodi-0.dtd"
   xmlns:inkscape="http://www.inkscape.org/namespaces/inkscape"
   width="55.132156mm"
   height="55.13216mm"
   viewBox="0 0 55.132156 55.13216"
   version="1.1"
   id="svg822"
   inkscape:version="0.92.2 (5c3e80d, 2017-08-06)"
   sodipodi:docname="youtube2.svg">
  <defs
     id="defs816" />
  <sodipodi:namedview
     id="base"
     pagecolor="#ffffff"
     bordercolor="#666666"
     borderopacity="1.0"
     inkscape:pageopacity="0.0"
     inkscape:pageshadow="2"
     inkscape:zoom="1.98"
     inkscape:cx="45.64111"
     inkscape:cy="37.890195"
     inkscape:document-units="mm"
     inkscape:current-layer="layer1"
     showgrid="false"
     inkscape:window-width="1078"
     inkscape:window-height="1080"
     inkscape:window-x="681"
     inkscape:window-y="39"
     inkscape:window-maximized="0"
     fit-margin-top="1"
     fit-margin-left="1"
     fit-margin-bottom="1"
     fit-margin-right="1" />
  <metadata
     id="metadata819">
    <rdf:RDF>
      <cc:Work
         rdf:about="">
        <dc:format>image/svg+xml</dc:format>
        <dc:type
           rdf:resource="http://purl.org/dc/dcmitype/StillImage" />
        <dc:title></dc:title>
      </cc:Work>
    </rdf:RDF>
  </metadata>
  <g
     inkscape:label="Layer 1"
     inkscape:groupmode="layer"
     id="layer1"
     transform="translate(-57.960226,-107.60215)">
    <path
       style="fill:#ff0000;fill-opacity:1;stroke:none;stroke-width:11.17690563;stroke-linecap:butt;stroke-linejoin:miter;stroke-miterlimit:4;stroke-dasharray:none;stroke-opacity:1"
       d="M 323.24805,410.46484 A 100.4076,100.4076 0 0 0 222.8418,510.87305 100.4076,100.4076 0 0 0 323.24805,611.2793 100.4076,100.4076 0 0 0 423.65625,510.87305 100.4076,100.4076 0 0 0 323.24805,410.46484 Z m -30.45313,48.57813 h 2.53906 l 2.54493,7.71289 c 1.39976,4.24131 2.63986,7.71094 2.75781,7.71094 0.11796,0 1.36,-3.46963 2.75976,-7.71094 l 2.54493,-7.71289 h 2.53906 c 1.39595,0 2.53711,0.0749 2.53711,0.16601 0,0.0911 -1.73484,5.35616 -3.85547,11.69922 l -3.85547,11.53321 v 8.17187 8.17383 h -2.66992 -2.66797 v -8.17383 -8.17187 l -3.85547,-11.53321 c -2.12063,-6.34306 -3.85547,-11.6082 -3.85547,-11.69922 0,-0.0911 1.14115,-0.16601 2.53711,-0.16601 z m 26.97656,10.63476 c 1.45559,-0.003 2.87595,0.23179 4.01758,0.75196 2.83373,1.29112 3.2461,3.06344 3.2461,13.95898 0,11.11756 -0.26808,12.04885 -3.91407,13.57227 -2.47039,1.03219 -5.31829,1.02213 -7.72656,-0.0234 v -0.002 c -3.5273,-1.53517 -3.7832,-2.47307 -3.7832,-13.85157 0,-5.92161 0.25979,-10.7728 0.61133,-11.42968 0.97088,-1.81412 4.34653,-2.97098 7.54882,-2.97657 z m 13.19532,0.043 h 2.37304 2.3711 v 10.7168 c 0,6.25266 0.25691,11.19381 0.61523,11.86328 0.77536,1.44877 3.05172,1.48141 4.33594,0.0625 0.83769,-0.92561 0.98242,-2.6658 0.98242,-11.86328 v -10.7793 h 2.37109 2.37305 v 14.53321 14.5332 h -2.37305 c -1.97727,0 -2.37109,-0.1972 -2.37109,-1.18555 0,-1.42446 -0.45848,-1.49359 -1.80859,-0.27148 -0.55619,0.50332 -1.96561,1.07037 -3.13282,1.25976 -1.81437,0.29481 -2.38472,0.0818 -3.92968,-1.46289 l -1.80664,-1.80664 v -12.80078 z m -13.51953,4.79688 c -0.63783,-0.017 -1.3009,0.29371 -2.00586,0.93164 -0.93993,0.85066 -1.08399,1.96504 -1.08399,8.34375 0,4.04904 0.27555,7.87674 0.61328,8.50781 0.39259,0.73353 1.24054,1.14844 2.35157,1.14844 1.11104,0 1.96092,-0.41495 2.35351,-1.14844 0.3377,-0.63103 0.61328,-4.41393 0.61328,-8.40625 0,-5.92199 -0.18164,-7.45873 -0.98242,-8.34375 -0.60908,-0.673 -1.22154,-1.01618 -1.85937,-1.0332 z m 4.32421,29.9043 h 44.49024 l 3.18555,1.76562 c 3.74902,2.07651 5.7898,4.54078 6.94726,8.38672 1.20238,3.9953 1.20238,33.83279 0,37.82812 -1.15746,3.84594 -3.19824,6.31224 -6.94726,8.38868 l -3.18555,1.76367 -43.59961,0.11719 c -35.23799,0.0956 -44.08564,-0.0376 -46.13672,-0.6836 -5.75464,-1.81833 -9.68292,-6.69027 -10.81836,-13.42187 -0.94373,-5.5951 -0.47389,-31.39421 0.62891,-34.54883 1.18429,-3.38778 4.88193,-7.25431 8.14062,-8.51172 2.62782,-1.01393 5.64218,-1.08398 47.29492,-1.08398 z m -43.34765,5.04296 -2.64649,1.33399 c -1.93284,0.97462 -3.01385,2.05458 -4.00586,4.0039 -1.33069,2.61487 -1.35407,2.99632 -1.18554,18.68555 0.17019,15.83312 0.18827,16.04732 1.65429,18.65625 2.80349,4.9889 2.96607,5.02409 24.91407,5.41992 24.55491,0.44311 66.87149,-0.0232 68.81054,-0.75586 1.93098,-0.73065 4.0223,-2.70485 5.22657,-4.93164 1.4381,-2.65923 1.4381,-34.1181 0,-36.77734 -1.24039,-2.29368 -3.30867,-4.20421 -5.41407,-5.00195 -1.12667,-0.42709 -15.60609,-0.63282 -44.51172,-0.63282 z m 4.49414,5.33789 h 7.71094 7.71289 v 2.66993 2.66992 h -2.66992 -2.66993 v 16.01562 16.01563 h -2.37304 -2.3711 V 536.1582 520.14258 h -2.66992 -2.66992 v -2.66992 z m 39.74414,0 H 327.33008 330 v 5.36329 5.36132 l 1.24609,-1.16015 c 2.73784,-2.55069 6.25079,-2.01815 8.24219,1.24804 1.05791,1.73519 1.18551,2.99275 1.1875,11.78907 0.002,9.27212 -0.0776,9.96705 -1.35156,11.85742 -1.96483,2.91553 -4.10258,3.49738 -7.00391,1.9082 C 330.08091,549.94328 330,549.93923 330,551.03711 c 0,0.95218 -0.43462,1.13672 -2.66992,1.13672 h -2.66797 v -18.68555 z m -21.35547,8.30469 h 2.66992 2.66992 v 11.15235 c 0,7.88281 0.20786,11.36015 0.71094,11.86328 1.08976,1.08975 3.32728,0.84699 4.01367,-0.43555 0.35827,-0.66951 0.61328,-5.61062 0.61329,-11.86328 v -10.7168 h 2.66992 2.66797 v 14.5332 14.53321 h -2.66797 c -2.2673,0 -2.66993,-0.17737 -2.66992,-1.17774 0,-1.1743 -0.004,-1.17402 -1.92774,-0.002 -2.36184,1.44004 -4.48447,1.48474 -6.1582,0.12891 -2.38753,-1.93395 -2.5918,-3.17385 -2.5918,-15.81641 z m 49.02148,0 c 2.82277,0 3.50691,0.23742 5.00391,1.73438 1.68614,1.68612 1.73438,1.89921 1.73438,7.68945 v 5.95313 l -5.18946,0.17187 -5.1914,0.16992 -0.17578,2.40821 c -0.0973,1.32404 0.10147,3.14213 0.44335,4.04101 0.52776,1.38807 0.91301,1.60713 2.55079,1.44922 1.73844,-0.16781 1.98251,-0.43425 2.48632,-2.70703 0.53792,-2.42676 0.64404,-2.52149 2.81836,-2.52149 h 2.25782 v 2.69922 c 0,5.14439 -2.45085,7.41496 -7.94727,7.36133 -1.33788,-0.0151 -3.13203,-0.40287 -3.98633,-0.86719 -2.86755,-1.55833 -3.48877,-4.00533 -3.48633,-13.73047 0.002,-7.75687 0.14241,-9.04122 1.18555,-10.75195 1.44266,-2.36621 3.21567,-3.09961 7.49609,-3.09961 z m -19.67578,3.61133 c -0.55295,-0.0247 -1.10964,0.2698 -1.7207,0.88086 -0.76321,0.7632 -0.93164,2.51792 -0.93164,9.6875 0,4.8161 0.17904,8.93491 0.39648,9.15234 0.65537,0.65541 3.46919,0.44498 4.23047,-0.3164 0.48573,-0.48571 0.71289,-3.34305 0.71289,-8.99805 0,-6.87919 -0.1675,-8.47261 -0.98242,-9.37305 -0.60192,-0.66512 -1.15212,-1.00854 -1.70508,-1.0332 z m 18.67969,1.42578 c -1.20462,0.0168 -2.33794,0.93951 -2.70312,2.39453 -0.6106,2.43277 0.0731,3.2461 2.72656,3.2461 1.59659,0 2.5254,-0.30038 2.75195,-0.89063 0.54303,-1.41509 -0.28612,-3.76281 -1.57226,-4.45117 -0.3916,-0.20958 -0.80159,-0.30444 -1.20313,-0.29883 z"
       transform="scale(0.26458333)"
       id="path1383"
       inkscape:export-xdpi="96"
       inkscape:export-ydpi="96"
       inkscape:connector-curvature="0" />
  </g>
</svg>
