<?xml version="1.0" encoding="UTF-8" standalone="no"?>
<!-- Created with Inkscape (http://www.inkscape.org/) -->

<svg
   xmlns:dc="http://purl.org/dc/elements/1.1/"
   xmlns:cc="http://creativecommons.org/ns#"
   xmlns:rdf="http://www.w3.org/1999/02/22-rdf-syntax-ns#"
   xmlns:svg="http://www.w3.org/2000/svg"
   xmlns="http://www.w3.org/2000/svg"
   xmlns:sodipodi="http://sodipodi.sourceforge.net/DTD/sodipodi-0.dtd"
   xmlns:inkscape="http://www.inkscape.org/namespaces/inkscape"
   width="55.712002mm"
   height="55.711891mm"
   viewBox="0 0 55.712002 55.711892"
   version="1.1"
   id="svg822"
   inkscape:version="0.92.2 (5c3e80d, 2017-08-06)"
   sodipodi:docname="linkedin.svg">
  <defs
     id="defs816" />
  <sodipodi:namedview
     id="base"
     pagecolor="#ffffff"
     bordercolor="#666666"
     borderopacity="1.0"
     inkscape:pageopacity="0.0"
     inkscape:pageshadow="2"
     inkscape:zoom="1"
     inkscape:cx="143.91653"
     inkscape:cy="126.44321"
     inkscape:document-units="mm"
     inkscape:current-layer="layer1"
     showgrid="false"
     inkscape:window-width="958"
     inkscape:window-height="1008"
     inkscape:window-x="-7"
     inkscape:window-y="0"
     inkscape:window-maximized="0"
     fit-margin-top="1"
     fit-margin-left="1"
     fit-margin-right="1"
     fit-margin-bottom="1" />
  <metadata
     id="metadata819">
    <rdf:RDF>
      <cc:Work
         rdf:about="">
        <dc:format>image/svg+xml</dc:format>
        <dc:type
           rdf:resource="http://purl.org/dc/dcmitype/StillImage" />
        <dc:title></dc:title>
      </cc:Work>
    </rdf:RDF>
  </metadata>
  <g
     inkscape:label="Layer 1"
     inkscape:groupmode="layer"
     id="layer1"
     transform="translate(-6.6057857,-123.27027)">
    <path
       style="fill:#0077b5;fill-opacity:1;stroke:none;stroke-width:1.946257;stroke-linecap:butt;stroke-linejoin:miter;stroke-miterlimit:4;stroke-dasharray:none;stroke-opacity:1"
       d="M 34.461758,124.27027 A 26.855987,26.855987 0 0 0 7.6057857,151.12619 26.855987,26.855987 0 0 0 34.461758,177.98216 26.855987,26.855987 0 0 0 61.317786,151.12619 26.855987,26.855987 0 0 0 34.461758,124.27027 Z m 4.132214,13.94763 c 3.840457,9.1e-4 5.777791,0.043 6.098418,0.1223 0.929686,0.23093 1.734244,0.85505 2.210891,1.71584 l 0.418628,0.75574 v 10.31635 10.31616 l -0.437145,0.77752 c -0.488492,0.86886 -1.492539,1.5922 -2.42189,1.74592 -0.573541,0.0948 -19.505725,0.087 -20.124936,-0.002 -0.77829,-0.11971 -1.840957,-0.92284 -2.299083,-1.73746 l -0.437211,-0.77756 v -10.31692 c 0,-9.91984 0.01065,-10.33743 0.273664,-10.86791 0.34905,-0.70332 1.015095,-1.36941 1.71841,-1.71841 0.527419,-0.26169 0.989645,-0.2756 10.514659,-0.31491 1.713588,-0.003 3.205472,-0.01 4.485595,-0.004 z m -14.123544,1.9579 -0.480352,0.48064 -0.480606,0.48027 v 9.95805 9.95834 l 0.302162,0.384 c 0.166172,0.21126 0.436423,0.43912 0.600612,0.50655 0.164093,0.0668 4.764376,0.10924 10.222975,0.0943 l 9.924498,-0.0287 0.391993,-0.39176 0.39185,-0.39176 0.03792,-10.04181 0.03838,-10.04194 -0.483323,-0.48331 -0.483102,-0.48334 h -9.991786 z m 2.971043,2.06042 c 0.992412,-0.0177 2.001663,0.68705 2.002958,1.8987 6.1e-4,1.49773 -1.665842,2.46722 -2.924112,1.70003 -0.917585,-0.55949 -1.203645,-1.48621 -0.765093,-2.47799 0.33547,-0.7582 1.006866,-1.10863 1.686247,-1.12074 z m -1.953455,5.99486 h 1.978327 1.97866 v 5.93525 5.93543 h -1.884354 c -1.036359,0 -1.926678,-0.0423 -1.978526,-0.0945 -0.05253,-0.0526 -0.09418,-2.72262 -0.09418,-5.93532 z m 6.076792,0 h 1.907861 1.907595 v 0.86785 0.86767 l 0.567909,-0.64511 c 0.808826,-0.91858 1.472367,-1.13881 3.205906,-1.06365 1.545601,0.0667 2.040671,0.25058 2.904454,1.07829 1.085999,1.04036 1.414253,2.94157 1.3464,7.79815 l -0.04053,2.89709 -1.943051,0.0395 -1.943152,0.0391 -9.14e-4,-3.28989 c -6.09e-4,-1.80931 -0.06169,-3.54392 -0.133834,-3.85483 -0.07941,-0.34522 -0.305934,-0.72243 -0.581154,-0.9691 -0.415059,-0.37177 -0.521628,-0.39944 -1.342143,-0.34723 -1.001753,0.0636 -1.371469,0.29909 -1.734327,1.10446 -0.177877,0.39423 -0.23391,1.1888 -0.2762,3.92135 l -0.05328,3.42712 H 33.46123 31.566503 l -2.5e-4,-5.93555 z"
       id="path1383"
       inkscape:export-xdpi="96"
       inkscape:export-ydpi="96"
       inkscape:connector-curvature="0" />
  </g>
</svg>
