<?xml version="1.0" encoding="UTF-8" standalone="no"?>
<!-- Created with Inkscape (http://www.inkscape.org/) -->

<svg
   xmlns:dc="http://purl.org/dc/elements/1.1/"
   xmlns:cc="http://creativecommons.org/ns#"
   xmlns:rdf="http://www.w3.org/1999/02/22-rdf-syntax-ns#"
   xmlns:svg="http://www.w3.org/2000/svg"
   xmlns="http://www.w3.org/2000/svg"
   xmlns:sodipodi="http://sodipodi.sourceforge.net/DTD/sodipodi-0.dtd"
   xmlns:inkscape="http://www.inkscape.org/namespaces/inkscape"
   width="55.711967mm"
   height="55.711967mm"
   viewBox="0 0 55.711967 55.711967"
   version="1.1"
   id="svg5081"
   inkscape:version="0.92.2 (5c3e80d, 2017-08-06)"
   sodipodi:docname="medium.svg">
  <defs
     id="defs5075" />
  <sodipodi:namedview
     id="base"
     pagecolor="#ffffff"
     bordercolor="#666666"
     borderopacity="1.0"
     inkscape:pageopacity="0.0"
     inkscape:pageshadow="2"
     inkscape:zoom="0.70710678"
     inkscape:cx="-170.09547"
     inkscape:cy="50.516913"
     inkscape:document-units="mm"
     inkscape:current-layer="layer1"
     showgrid="false"
     inkscape:window-width="1920"
     inkscape:window-height="1017"
     inkscape:window-x="-8"
     inkscape:window-y="-8"
     inkscape:window-maximized="1"
     fit-margin-top="1"
     fit-margin-left="1"
     fit-margin-bottom="1"
     fit-margin-right="1" />
  <metadata
     id="metadata5078">
    <rdf:RDF>
      <cc:Work
         rdf:about="">
        <dc:format>image/svg+xml</dc:format>
        <dc:type
           rdf:resource="http://purl.org/dc/dcmitype/StillImage" />
        <dc:title></dc:title>
      </cc:Work>
    </rdf:RDF>
  </metadata>
  <g
     inkscape:label="Layer 1"
     inkscape:groupmode="layer"
     id="layer1"
     transform="translate(-77.144067,-120.64425)">
    <path
       style="fill:#00ab6c;fill-opacity:1;stroke:none;stroke-width:5.87499189;stroke-linecap:butt;stroke-linejoin:miter;stroke-miterlimit:4;stroke-dasharray:none;stroke-opacity:1"
       d="M 396.84961,459.75781 A 101.503,101.503 0 0 0 295.34766,561.25977 101.503,101.503 0 0 0 396.84961,662.76367 101.503,101.503 0 0 0 498.35352,561.25977 101.503,101.503 0 0 0 396.84961,459.75781 Z m -50.74023,60.14063 h 15.13476 15.13477 l 0.34961,0.93945 c 0.19313,0.51704 0.63788,1.55463 0.98828,2.30664 0.69418,1.48985 2.05992,4.46157 3.77148,8.20508 0.6017,1.31607 1.55487,3.39316 2.11719,4.61523 1.11711,2.42782 2.38676,5.21664 3.3457,7.34961 0.33827,0.75202 1.00164,2.21206 1.47461,3.2461 0.47297,1.03408 1.35218,2.9574 1.95313,4.27343 0.60094,1.31607 1.55291,3.39317 2.11523,4.61524 1.11715,2.42782 2.38481,5.21671 3.34375,7.34961 0.33827,0.75205 1.00112,2.21201 1.47266,3.24609 0.47153,1.03408 1.09674,2.45708 1.38867,3.16211 0.29178,0.70503 0.65407,1.27887 0.80469,1.27539 0.1508,-0.003 4.71609,-11.19293 10.14648,-24.86719 5.43039,-13.67421 10.02723,-25.05787 10.21484,-25.29492 0.26684,-0.33713 3.44378,-0.4113 14.56836,-0.34179 l 14.22657,0.0898 0.11914,0.85156 c 0.10015,0.71112 -0.64739,1.58594 -4.5293,5.29883 l -4.64844,4.44727 v 30.58007 30.57813 l 4.44336,4.44531 c 3.57543,3.5754 4.44336,4.63044 4.44336,5.39844 v 0.95312 h -20.33789 -20.33984 v -0.96484 c 0,-0.78523 0.86168,-1.82157 4.61914,-5.55469 l 4.61914,-4.58984 -0.0899,-23.92774 c -0.0495,-13.17683 -0.21815,-23.62065 -0.375,-23.24414 -0.15647,0.37607 -1.13218,2.83662 -2.16796,5.46875 -1.03582,2.63218 -2.00655,5.09277 -2.15625,5.46875 -0.14967,0.37607 -1.15033,2.91449 -2.22266,5.64063 -1.07237,2.72613 -2.07096,5.2646 -2.2207,5.64062 -0.14967,0.37607 -1.15029,2.91449 -2.22266,5.64063 -1.07229,2.72617 -2.07107,5.2646 -2.2207,5.64062 -0.14967,0.37607 -0.99693,2.52905 -1.88282,4.78516 -0.88595,2.25615 -1.73255,4.40913 -1.88085,4.78516 -3.90785,9.91139 -4.33472,11.00827 -5.12305,13.16211 -0.5576,1.52337 -0.58051,1.53745 -2.30469,1.63867 l -1.74023,0.10351 -0.84961,-1.8125 c -0.46685,-0.99624 -1.34102,-2.88705 -1.94336,-4.20312 -0.60235,-1.31607 -1.4839,-3.23936 -1.95899,-4.27344 -0.47516,-1.03408 -1.22993,-2.68872 -1.67773,-3.67578 -1.16746,-2.57348 -2.29255,-5.03247 -3.55469,-7.77539 -0.60555,-1.31607 -1.45042,-3.16152 -1.87891,-4.10156 -0.42848,-0.94005 -1.25647,-2.74853 -1.83984,-4.01758 -0.58341,-1.26909 -1.53772,-3.34615 -2.12109,-4.61524 -1.16413,-2.53243 -2.36108,-5.14355 -3.56055,-7.77539 -0.42845,-0.94004 -1.27331,-2.78744 -1.87891,-4.10351 -1.78605,-3.8815 -4.74922,-10.37402 -5.38085,-11.79297 -0.28498,-0.63976 -0.38504,4.40256 -0.40235,20.0625 l -0.0234,20.91797 1.77149,2.32617 c 0.97417,1.28031 1.86382,2.406 1.97656,2.5 0.11263,0.0941 1.19984,1.40023 2.41602,2.9043 1.21617,1.5041 2.29119,2.81221 2.38867,2.90625 0.0975,0.0941 0.98126,1.14639 1.96484,2.33789 1.25137,1.51585 1.78906,2.46546 1.78906,3.16211 v 0.99609 H 360.29491 344.9121 v -1 c 0,-0.58768 0.38662,-1.46678 0.93945,-2.13281 1.70891,-2.05894 2.30469,-2.76578 2.65039,-3.15235 0.188,-0.21052 0.95723,-1.15198 1.70899,-2.09179 1.38103,-1.72649 2.45012,-3.01863 3.07617,-3.71875 1.21823,-1.36237 2.8908,-3.62595 3.375,-4.56641 0.51897,-1.008 0.56039,-3.31122 0.47656,-25.82617 l -0.0918,-24.7207 -2.5625,-3.08204 c -1.41007,-1.69557 -3.07893,-3.71767 -3.70704,-4.49414 -0.6281,-0.77639 -1.42179,-1.73474 -1.76367,-2.1289 -2.19997,-2.53659 -2.84788,-3.54152 -2.875,-4.45703 z"
       transform="scale(0.26458333)"
       id="path844"
       inkscape:export-xdpi="96"
       inkscape:export-ydpi="96"
       inkscape:connector-curvature="0" />
  </g>
</svg>
