<?xml version="1.0" encoding="UTF-8" standalone="no"?>
<!-- Created with Inkscape (http://www.inkscape.org/) -->

<svg
   xmlns:dc="http://purl.org/dc/elements/1.1/"
   xmlns:cc="http://creativecommons.org/ns#"
   xmlns:rdf="http://www.w3.org/1999/02/22-rdf-syntax-ns#"
   xmlns:svg="http://www.w3.org/2000/svg"
   xmlns="http://www.w3.org/2000/svg"
   xmlns:sodipodi="http://sodipodi.sourceforge.net/DTD/sodipodi-0.dtd"
   xmlns:inkscape="http://www.inkscape.org/namespaces/inkscape"
   width="55.711967mm"
   height="55.71196mm"
   viewBox="0 0 55.711967 55.71196"
   version="1.1"
   id="svg5081"
   inkscape:version="0.92.2 (5c3e80d, 2017-08-06)"
   sodipodi:docname="medium2.svg">
  <defs
     id="defs5075" />
  <sodipodi:namedview
     id="base"
     pagecolor="#ffffff"
     bordercolor="#666666"
     borderopacity="1.0"
     inkscape:pageopacity="0.0"
     inkscape:pageshadow="2"
     inkscape:zoom="2"
     inkscape:cx="-32.654817"
     inkscape:cy="36.55654"
     inkscape:document-units="mm"
     inkscape:current-layer="layer1"
     showgrid="false"
     inkscape:window-width="1920"
     inkscape:window-height="1017"
     inkscape:window-x="-8"
     inkscape:window-y="-8"
     inkscape:window-maximized="1"
     fit-margin-left="1"
     fit-margin-top="1"
     fit-margin-bottom="1"
     fit-margin-right="1" />
  <metadata
     id="metadata5078">
    <rdf:RDF>
      <cc:Work
         rdf:about="">
        <dc:format>image/svg+xml</dc:format>
        <dc:type
           rdf:resource="http://purl.org/dc/dcmitype/StillImage" />
        <dc:title></dc:title>
      </cc:Work>
    </rdf:RDF>
  </metadata>
  <g
     inkscape:label="Layer 1"
     inkscape:groupmode="layer"
     id="layer1"
     transform="translate(-69.603442,-130.56613)">
    <path
       style="fill:#00ab6c;fill-opacity:1;stroke:none;stroke-width:2.90181875;stroke-linecap:butt;stroke-linejoin:miter;stroke-miterlimit:4;stroke-dasharray:none;stroke-opacity:1"
       d="m 97.459166,131.56613 a 26.856002,26.856002 0 0 0 -26.855724,26.85572 26.856002,26.856002 0 0 0 26.855724,26.85624 26.856002,26.856002 0 0 0 26.856244,-26.85624 26.856002,26.856002 0 0 0 -26.856244,-26.85572 z m 4.887554,13.61725 c 0.30477,-0.0156 0.6114,0.0339 0.91674,0.14883 0.0781,0.0294 0.51556,0.24314 0.97152,0.47491 0.45596,0.23177 1.57868,0.80097 2.49494,1.26452 4.21984,2.13486 5.15009,2.60823 5.25497,2.67477 0.23018,0.14601 0.48047,0.45361 0.59118,0.72606 0.12204,0.30035 0.11382,-0.43521 0.11369,9.76477 -2.1e-4,10.15963 0.007,9.51099 -0.11524,9.89863 -0.21957,0.69602 -0.73627,1.19161 -1.44746,1.38751 -0.23233,0.064 -0.75028,0.0798 -1.01389,0.031 -0.25859,-0.0478 -0.44119,-0.10398 -0.68264,-0.20877 -0.19798,-0.0859 -1.6769,-0.82454 -2.81482,-1.40611 -0.29593,-0.15127 -1.25987,-0.64022 -2.14198,-1.08676 -0.88211,-0.44654 -1.89251,-0.95855 -2.24535,-1.13792 -0.35285,-0.17935 -1.08817,-0.55229 -1.63452,-0.82837 -0.54634,-0.27608 -1.1986,-0.60633 -1.449009,-0.73432 -0.250399,-0.12799 -0.97181,-0.49461 -1.603518,-0.81442 -0.631712,-0.3198 -1.651392,-0.83641 -2.266014,-1.14825 l -1.117761,-0.56689 -0.01137,3.07526 c -0.0127,3.36503 -0.0052,3.15602 -0.133324,3.54087 -0.333221,0.99906 -1.261821,1.55983 -2.312003,1.3963 -0.365308,-0.0569 -0.581821,-0.15485 -2.489255,-1.12655 -0.307317,-0.15656 -0.982282,-0.49922 -1.500167,-0.76119 -3.396771,-1.71821 -4.124711,-2.09157 -4.261755,-2.18591 -0.568081,-0.39101 -0.988107,-1.028 -1.174604,-1.78181 -0.03368,-0.13609 -0.03622,-0.70264 -0.04238,-9.35395 -0.0073,-10.2029 -0.01763,-9.40209 0.127125,-9.82524 0.08908,-0.26039 0.231748,-0.49723 0.424264,-0.7028 0.185799,-0.1984 0.354635,-0.3216 0.58446,-0.42736 0.299892,-0.138 0.396957,-0.15745 0.79375,-0.1571 0.534577,4.7e-4 0.599675,0.0229 1.717725,0.58911 0.443902,0.22476 1.202462,0.60924 1.6862,0.85421 0.48374,0.24496 2.006542,1.0155 3.383775,1.71256 1.377233,0.69705 2.546037,1.29614 2.597255,1.33119 0.131361,0.0899 0.258086,0.20987 0.342617,0.32504 0.0399,0.0543 0.494197,0.9245 1.009756,1.93373 0.51557,1.00923 0.944817,1.83683 0.953947,1.83865 0.009,0.002 0.23186,-0.3514 0.49506,-0.78445 0.263202,-0.43307 1.325657,-2.18133 2.361096,-3.88503 1.28074,-2.10733 1.92435,-3.14647 2.01228,-3.25097 0.1896,-0.22533 0.42916,-0.40912 0.72037,-0.5519 0.29709,-0.14569 0.59957,-0.22629 0.90433,-0.24185 z m 0.0749,1.32189 c -0.25297,0.01 -0.50455,0.12428 -0.67747,0.31988 -0.069,0.0781 -5.120367,8.35223 -5.169198,8.46718 -0.009,0.0206 5.178578,10.22323 5.451348,10.72182 0.0395,0.0722 0.079,0.12334 0.0873,0.11369 0.008,-0.01 0.47,-0.76685 1.02578,-1.6831 h -5.2e-4 c 0.55577,-0.91626 1.52,-2.50409 2.14251,-3.52847 5.09141,-8.37834 6.04252,-9.94826 6.04252,-9.972 0,-0.0148 -0.021,-0.046 -0.0465,-0.0692 -0.0503,-0.0455 -0.25965,-0.15273 -3.97857,-2.0345 -1.35446,-0.68536 -2.91984,-1.47758 -3.47833,-1.76062 -0.65109,-0.32996 -1.06293,-0.52691 -1.14826,-0.5488 -0.0819,-0.021 -0.1663,-0.0291 -0.25063,-0.0258 z m -18.257796,0.12144 c -0.261268,3.7e-4 -0.45116,0.13253 -0.552937,0.38499 l -0.04909,0.12195 -0.0052,9.1364 c -0.0053,9.07935 -0.005,9.13775 0.03617,9.30227 0.05479,0.21897 0.161343,0.43168 0.311092,0.62012 0.20737,0.26095 0.123169,0.21244 2.213819,1.26865 0.586176,0.29616 1.759627,0.88997 2.60759,1.3193 2.765163,1.4 2.968329,1.50094 3.083534,1.53169 0.158536,0.0423 0.416994,0.0297 0.542602,-0.0264 0.135266,-0.0604 0.287983,-0.20982 0.355534,-0.34778 0.12356,-0.25233 0.114848,0.44115 0.115239,-9.70742 2.89e-4,-7.42791 -0.0048,-9.31914 -0.02532,-9.33535 -0.0261,-0.0205 -0.398775,-0.21038 -3.212725,-1.63556 -4.417935,-2.23754 -5.056258,-2.55832 -5.160409,-2.59416 -0.06951,-0.0239 -0.169675,-0.0388 -0.259932,-0.0387 z m 27.191616,6.83937 -0.44648,0.73484 c -0.2454,0.40399 -2.05955,3.39015 -4.03179,6.63629 -1.97225,3.24614 -3.58759,5.90798 -3.58945,5.91488 -0.002,0.007 0.44378,0.23817 0.99012,0.51418 1.95619,0.98828 3.5347,1.78756 4.55269,2.30529 0.56911,0.28945 1.10056,0.5529 1.18081,0.58498 0.13791,0.0551 0.32235,0.0983 0.51625,0.12092 0.0114,0.001 0.0841,-0.007 0.16175,-0.0181 0.34865,-0.0504 0.58953,-0.28731 0.65525,-0.64337 0.0135,-0.0732 0.0189,-2.87445 0.0155,-8.13077 z m -17.199978,0.0532 c -0.004,-0.005 -0.0078,1.93243 -0.0078,4.30465 v 4.31291 l 2.94349,1.48828 c 1.61903,0.81844 2.952508,1.49594 2.963128,1.50534 0.0106,0.009 0.023,0.0133 0.0274,0.009 0.005,-0.005 -0.669122,-1.33353 -1.496551,-2.95382 l -5.16e-4,5.1e-4 c -0.827431,-1.62027 -2.160521,-4.23148 -2.962611,-5.80223 -0.802071,-1.57073 -1.462037,-2.85968 -1.466577,-2.86442 z"
       id="path5664"
       inkscape:connector-curvature="0"
       inkscape:export-xdpi="96"
       inkscape:export-ydpi="96" />
  </g>
</svg>
